<svg width="64" height="94" viewBox="0 0 64 94" fill="none" xmlns="http://www.w3.org/2000/svg">
<g clip-path="url(#clip0_0_228)">
<path d="M31.1371 11.2448C34.0118 10.9518 36.9043 10.8747 39.7905 11.0141C44.2222 11.2247 48.4639 11.2498 52.2954 13.8621C53.9988 15.0089 55.2695 16.6952 55.9042 18.6512C56.539 20.6073 56.5011 22.7202 55.7968 24.6522C54.9964 26.7279 53.5009 28.3475 53.1057 30.5937C52.6905 32.9603 53.1057 35.3821 53.0807 37.7687C53.0807 38.6512 53.936 39.2378 54.5813 39.8545C55.8368 41.0529 57.0122 42.3315 58.2427 43.5499C58.7729 44.0513 59.3682 44.322 59.2431 45.1493C58.993 46.9945 57.0823 47.0797 55.9918 48.1577C55.6323 48.5054 55.3943 48.9601 55.3132 49.4542C55.2321 49.9484 55.3122 50.4555 55.5417 50.9004C55.8268 51.5722 56.1569 52.3444 55.8318 53.0012C55.5066 53.658 54.7213 53.9138 54.5163 54.5756C54.3112 55.2374 54.7263 55.8391 54.5463 56.4408C54.2411 57.4436 52.8256 57.4436 52.3104 58.1957C51.7263 59.2045 51.3934 60.3397 51.34 61.5049C51.1249 64.5835 49.5043 65.9624 46.5782 65.5863C45.0326 65.3908 43.537 64.749 42.0314 64.2676C39.1252 63.3451 36.1741 63.0392 36.2941 66.8799C36.3892 70.0989 36.2591 73.3128 36.2941 76.5318C36.3492 79.6555 38.1299 84.0177 33.373 83.9876C30.6769 83.9876 17.982 83.4862 17.3117 81.4405C17.2188 81.0219 17.2466 80.5854 17.3918 80.182L20.2729 69.0961C20.573 67.9479 21.6684 65.8871 20.523 64.9295C19.5226 64.1072 18.2971 65.0147 17.2567 65.2855C15.9808 65.577 14.6734 65.7067 13.3652 65.6715C4.62177 65.7016 2.01075 62.1066 0.130014 53.638C-0.610275 50.2937 1.19043 47.4708 3.85147 45.4752C4.85186 44.7081 6.09734 44.2919 7.17777 43.6401C8.45827 42.868 8.70836 42.0908 8.77839 40.5966C8.89844 37.9843 7.778 35.4422 7.5279 32.9152C7.31816 30.5063 7.61815 28.0801 8.40825 25.7953C10.055 21.0218 13.5004 17.084 18.007 14.8248C21.9635 12.8392 26.5403 11.7311 31.1371 11.2448Z" fill="#6DA4AA"/>
<path d="M39.8055 83.0852C39.1702 78.6728 38.8501 74.1101 38.7401 72.28C38.4049 66.6293 39.8255 65.6866 45.1426 67.3764C46.7932 67.8778 47.4735 68.3791 49.1741 68.5947C52.3804 69.0059 54.1761 67.4967 54.3962 64.1173C54.4912 62.6783 55.1965 59.6498 56.572 58.8125C57.0122 58.5417 57.5074 58.3662 57.9526 58.1005C58.0944 58.027 58.215 57.9183 58.3027 57.7846C58.3693 57.6545 58.402 57.5096 58.3977 57.3634C58.4278 56.5712 58.1777 55.7038 58.5928 55.0219C59.008 54.34 59.8333 54.1144 60.0934 53.4224C60.1685 53.1382 60.1685 52.8393 60.0934 52.555C59.9433 51.7077 59.3381 51.0508 59.3281 50.1884C59.2963 49.5827 59.4847 48.9859 59.8583 48.5087C60.4485 47.7767 61.3039 47.6112 62.0242 47.1048C62.6444 46.6636 63.4497 45.8764 63.6048 45.0992C63.7598 44.3221 63.0746 43.7906 62.6044 43.3143C61.2489 41.9755 59.9584 40.5716 58.6028 39.2529C57.8925 38.576 56.9372 37.9343 56.9572 36.9666C57.0072 33.9832 55.7767 29.3152 57.9576 26.8433C58.9456 25.7698 59.701 24.5027 60.1762 23.122C60.6514 21.7412 60.8361 20.2768 60.7187 18.821C60.6089 17.2131 60.1385 15.6507 59.3426 14.2504C58.5467 12.8501 57.4457 11.6479 56.1219 10.7334C46.1179 3.93444 28.6561 4.83195 21.3433 15.246C18.7272 18.9814 17.7469 23.7046 18.002 28.2823C18.217 32.093 19.4175 36.0991 22.3787 38.5008C26.0001 41.439 31.4522 41.1783 35.5588 38.9721C38.1682 37.6309 40.251 35.4478 41.4711 32.7749C43.1918 28.7135 43.0367 23.2483 38.7301 20.7914C33.7831 17.9736 28.0109 22.6817 27.2906 27.5603C26.1201 35.347 31.6173 42.878 30.7319 50.6798C30.4368 53.272 29.2314 55.6637 27.9108 57.915" stroke="#004E56" stroke-width="1.5" stroke-linecap="round" stroke-linejoin="round"/>
<path d="M35.8641 46.0015C36.5678 45.8003 37.3061 45.7507 38.0303 45.8562C38.7545 45.9616 39.4482 46.2196 40.0657 46.6132C40.4159 46.8388 38.8953 48.343 36.9295 48.9046C35.5605 49.252 34.1119 49.0843 32.8579 48.4332C33.1622 47.8403 33.5868 47.3176 34.1045 46.8988C34.6222 46.48 35.2216 46.1744 35.8641 46.0015Z" stroke="#004E56" stroke-width="1.5" stroke-linecap="round" stroke-linejoin="round"/>
<path d="M35.879 52.63C36.6041 52.7285 37.3003 52.9796 37.9218 53.3667C38.5433 53.7538 39.0762 54.2683 39.4855 54.8763C39.7155 55.2172 37.7248 55.9944 35.699 55.7186C34.3048 55.4907 33.0428 54.7573 32.1526 53.6579C32.6677 53.2352 33.2654 52.9254 33.9072 52.7484C34.549 52.5714 35.2207 52.531 35.879 52.63Z" stroke="#004E56" stroke-width="1.5" stroke-linecap="round" stroke-linejoin="round"/>
<path d="M26.5604 45.7556C25.9722 45.3195 25.2988 45.0128 24.5843 44.8556C23.8697 44.6983 23.1301 44.694 22.4138 44.8431C22.0086 44.9283 22.9139 46.8487 24.5396 48.0971C25.6943 48.913 27.1071 49.2768 28.5111 49.12C28.4402 48.4532 28.2299 47.809 27.8937 47.2292C27.5576 46.6495 27.1032 46.1474 26.5604 45.7556Z" stroke="#004E56" stroke-width="1.5" stroke-linecap="round" stroke-linejoin="round"/>
<path d="M24.1994 51.973C23.4829 51.8036 22.7386 51.7888 22.0159 51.9297C21.2933 52.0706 20.6087 52.364 20.0078 52.7903C19.6727 53.031 21.2633 54.46 23.2591 54.9263C24.6413 55.2039 26.0771 54.9649 27.2957 54.2544C26.9665 53.679 26.521 53.1789 25.9879 52.786C25.4547 52.3932 24.8456 52.1163 24.1994 51.973Z" stroke="#004E56" stroke-width="1.5" stroke-linecap="round" stroke-linejoin="round"/>
</g>
<defs>
<clipPath id="clip0_0_228">
<rect width="64" height="94" fill="white"/>
</clipPath>
</defs>
</svg>
