<svg width="64" height="95" viewBox="0 0 64 95" fill="none" xmlns="http://www.w3.org/2000/svg">
<g clip-path="url(#clip0_0_249)">
<path d="M33.1001 80.8603C26.1742 81.8246 15.338 81.9951 9.97846 76.5983C8.31093 74.9254 9.792 71.356 10.1862 69.3475C10.719 66.5558 11.6247 56.5613 11.971 53.7431C12.1361 52.3472 12.4611 50.9567 12.2267 49.5343C11.7738 46.7906 10.3301 44.5956 8.36954 42.7097C7.09043 41.4891 5.93906 40.1414 4.93326 38.6874C1.15069 33.1947 -0.820507 27.2225 0.308933 20.4937C0.857445 16.7171 2.41658 13.1589 4.82138 10.1956C8.06054 6.32775 12.3812 4.12747 17.1813 2.82755C21.4888 1.6793 25.9615 1.27925 30.4043 1.64483C35.2672 1.94608 40.0056 3.30613 44.288 5.62984C52.5457 10.1849 55.364 19.6467 52.8121 26.7217C52.4614 27.5655 52.3115 28.4792 52.3744 29.3908C52.4373 30.3024 52.7111 31.187 53.1743 31.9746C54.4796 34.0684 55.7848 36.1621 57.0741 38.2132C57.4013 38.6732 57.6798 39.166 57.9052 39.6836C58.3634 40.9249 57.9691 41.7667 56.7065 42.1396C55.8543 42.4168 54.9696 42.5816 54.0747 42.6298C53.4567 42.6298 53.3608 42.9121 53.5153 43.4342C53.7124 44.1108 53.8829 44.7981 54.0481 45.48C54.1264 45.6538 54.1663 45.8425 54.1649 46.0331C54.1634 46.2238 54.1207 46.4119 54.0398 46.5844C53.9588 46.757 53.8414 46.9101 53.6957 47.033C53.55 47.156 53.3794 47.2459 53.1956 47.2967C52.8292 47.4335 52.4887 47.6317 52.1887 47.8827C51.8851 48.1758 51.8851 48.4155 52.258 48.6712C53.6591 49.7367 53.5526 50.8662 51.9969 51.6973C51.4866 51.9553 51.0787 52.3786 50.8398 52.8981C50.6008 53.4176 50.5449 54.0028 50.681 54.5582C50.7769 55.0909 50.9527 55.5544 51.0913 56.0552C51.8158 58.6178 50.5585 60.6263 47.8947 60.9353C45.5431 61.2441 43.1525 60.8589 41.0168 59.8271C39.6317 59.1452 39.0243 59.4169 38.7579 60.9512C38.3531 63.2954 37.6445 72.8424 37.3302 75.2025C37.1064 76.8913 37.2076 79.2301 35.4708 80.1571C34.7265 80.5251 33.9247 80.763 33.1001 80.8603Z" fill="#6DA4AA"/>
<path d="M26.3927 52.086C28.9819 50.3865 31.7203 48.5485 32.9829 45.7302C34.1177 43.2369 33.9419 40.3493 33.4251 37.6589C32.8479 34.6408 31.8753 31.7121 30.5322 28.9484C29.4348 26.6788 28.0709 24.4998 27.4582 22.0225C26.4673 18.0801 28.0336 13.9619 32.3596 13.4132C35.6627 12.9923 37.9589 14.3402 40.1538 16.6097C42.3488 18.8793 42.6897 22.3795 42.157 25.5334C41.9312 27.0711 41.3885 28.5452 40.5631 29.8622C39.7377 31.1791 38.6477 32.3102 37.3622 33.1838C30.17 37.8028 20.8787 32.9707 16.5367 26.7374C12.8074 21.4099 13.0685 15.6774 16.1478 10.1154C17.9965 6.7857 21.2037 4.32436 24.7518 2.96051C32.626 -0.065549 42.0291 1.586 49.2586 5.57101C57.8413 10.3019 60.7662 20.0939 58.1397 27.4566C57.7772 28.3316 57.6228 29.2787 57.6884 30.2235C57.754 31.1683 58.038 32.085 58.5179 32.9014C59.8498 35.0964 61.203 37.2274 62.5456 39.3584C62.8855 39.8424 63.1747 40.3601 63.4086 40.9034C63.8828 42.182 63.4672 43.0877 62.162 43.4446C61.2801 43.7413 60.363 43.9204 59.4343 43.9774C58.7896 43.9774 58.6937 44.2704 58.8536 44.8138C59.0613 45.5117 59.2318 46.2256 59.4289 46.9449C59.69 47.8878 59.4289 48.4526 58.5446 48.8308C58.1546 48.9724 57.7935 49.1836 57.479 49.4541C57.1647 49.7578 57.1594 49.9869 57.5483 50.2693C59.0027 51.3348 58.8909 52.5495 57.2819 53.4072C56.7538 53.6738 56.331 54.1106 56.0816 54.6471C55.8322 55.1835 55.7709 55.7884 55.9074 56.364C56.0086 56.8967 56.1898 57.4295 56.3336 57.9196C57.0848 60.5834 56.4508 64.3127 53.0305 65.4102C50.3295 66.2946 48.1558 65.3569 45.8969 64.2541C44.4532 63.5509 43.8245 63.8332 43.5528 65.4208C43.2811 67.0085 42.4873 77.85 41.9545 81.4675" stroke="#004E56" stroke-width="1.5" stroke-linecap="round" stroke-linejoin="round"/>
<path d="M19.3444 37.9893C14.443 36.0181 12.7542 33.5727 14.0701 28.3464C15.0664 24.4413 17.9326 21.7136 21.8111 20.6374C25.1994 19.6944 25.4551 23.7061 28.3906 24.713C28.9081 24.9077 29.4682 24.961 30.0132 24.8674C30.5582 24.7738 31.0684 24.5366 31.4912 24.1802C32.1625 23.5409 32.4182 22.582 32.8924 21.7988C36.1315 16.402 41.9492 21.3193 44.645 24.4626C47.2555 27.51 49.882 33.951 47.3088 37.8081C45.2736 40.8608 42.2156 40.8608 40.351 38.0852C38.3691 35.123 37.1012 31.7614 33.4251 30.584C32.5195 30.2909 31.4593 30.1631 30.6921 30.7172C29.7758 31.3831 29.7012 32.6777 29.4455 33.7752C29.1804 34.9432 28.617 36.0225 27.8102 36.9077C27.0034 37.7929 25.9809 38.4537 24.8424 38.8257C23.5106 39.1933 21.3795 38.8257 19.3444 37.9893Z" stroke="#004E56" stroke-width="1.5" stroke-linecap="round" stroke-linejoin="round"/>
</g>
<defs>
<clipPath id="clip0_0_249">
<rect width="64" height="95" fill="white" transform="matrix(-1 0 0 1 64 0)"/>
</clipPath>
</defs>
</svg>
