<svg width="65" height="82" viewBox="0 0 65 82" fill="none" xmlns="http://www.w3.org/2000/svg">
<g clip-path="url(#clip0_0_238)">
<path d="M28.2065 2.85799H28.1552C32.1032 2.56607 36.0709 3.01873 39.8518 4.19239C48.51 6.93818 52.9597 15.3244 51.9127 22.5045C51.7391 23.3678 51.7698 24.2597 52.0024 25.1089C52.235 25.9582 52.663 26.7413 53.2522 27.3956C54.8484 29.1303 56.4753 30.8394 58.092 32.5587C58.4864 32.9328 58.8423 33.3455 59.1544 33.7905C59.8216 34.8734 59.6061 35.7459 58.4821 36.3566C57.73 36.7791 56.926 37.1017 56.0904 37.3164C55.5105 37.4498 55.4643 37.7167 55.7106 38.1837C56.0288 38.7842 56.3162 39.4001 56.6242 40.0057C57.0296 40.8166 56.9013 41.376 56.1571 41.8841C55.8278 42.0855 55.5375 42.3445 55.3 42.6488C55.064 42.9773 55.105 43.1621 55.5105 43.3776C57.0502 44.091 57.1477 45.2099 55.8389 46.2825C55.4057 46.6215 55.0996 47.0968 54.9701 47.6315C54.8406 48.1661 54.8954 48.7288 55.1255 49.2285C55.3103 49.6853 55.5721 50.1164 55.7979 50.5629C56.9629 52.8468 56.1417 54.9869 53.709 55.7773C51.545 56.5121 49.2132 56.5978 47.0011 56.0237C45.564 55.6439 45.0405 56.0237 45.0816 57.512C45.1381 59.8062 45.1688 62.1311 45.3126 64.3945C45.4203 66.0368 45.9592 68.2283 44.4914 69.4293C43.8598 69.9184 43.1477 70.2935 42.3871 70.5379C39.5818 71.5316 36.6926 72.2702 33.7546 72.7448C33.7546 72.4727 33.7033 72.2059 33.6879 71.9544C33.539 69.6654 33.5082 58.4718 33.4518 56.1776C33.4107 54.6841 33.9342 54.3095 35.3713 54.6893C37.5841 55.2593 39.9152 55.1719 42.0792 54.4378C44.5119 53.6525 45.3331 51.5124 44.168 49.2285C43.9422 48.782 43.6856 48.3508 43.4957 47.8889C43.266 47.3901 43.2114 46.8282 43.3409 46.2944C43.4704 45.7607 43.7763 45.2863 44.2091 44.9481C45.5178 43.8703 45.3998 42.7566 43.8806 42.0432C43.4752 41.8533 43.4341 41.6429 43.6702 41.3093C43.9064 40.9968 44.1967 40.7291 44.5273 40.5189C45.2715 40.0057 45.3998 39.4514 44.9943 38.6405C44.6864 38.0349 44.399 37.419 44.0808 36.8134C43.8344 36.3515 43.8806 36.0795 44.4606 35.9512C45.2963 35.7348 46.1003 35.4104 46.8522 34.9863C47.9762 34.4012 48.1918 33.5236 47.5246 32.4458C47.2124 32.0008 46.8565 31.5881 46.4622 31.214C44.8455 29.4947 43.2186 27.7857 41.6224 26.0509C41.0332 25.3966 40.6052 24.6135 40.3726 23.7642C40.14 22.915 40.1093 22.0231 40.2829 21.1598C41.3299 13.9848 36.8853 5.61917 28.2065 2.85799ZM26.3127 11.0697C27.0497 11.9654 27.4526 13.0893 27.4526 14.2492C27.4526 15.4091 27.0497 16.533 26.3127 17.4286C23.998 20.1796 21.3857 18.7938 18.4654 20.3335C17.1413 21.0264 15.7761 21.827 14.8728 23.0485C14.1491 24.0237 14.144 25.2452 13.6154 26.2921C13.0022 27.3441 12.017 28.1278 10.8542 28.4888C10.1851 28.6954 9.47776 28.7472 8.7857 28.6402C8.09365 28.5333 7.43497 28.2703 6.85947 27.8714C6.28398 27.4724 5.80674 26.9478 5.46384 26.3372C5.12093 25.7266 4.92134 25.0461 4.88016 24.347C4.78778 20.3695 8.51384 19.3943 9.47358 18.7528C10.6489 17.9675 11.9525 17.3619 13.0354 16.4484C14.5751 15.1499 15.5502 13.333 16.859 11.8293C18.0579 10.3904 19.7403 9.43789 21.591 9.15021C22.4739 9.04909 23.368 9.16978 24.1925 9.50136C25.0169 9.83294 25.7457 10.3649 26.3127 11.0492V11.0697Z" fill="#6DA4AA"/>
<path d="M31.5322 2.62673C38.9125 2.47276 41.4992 3.40171 44.1834 4.24854C53.1957 7.09697 57.8148 15.7963 56.7114 23.2432C56.5347 24.1392 56.5684 25.064 56.8097 25.9448C57.051 26.8256 57.4935 27.6383 58.1022 28.3191C59.76 30.1206 61.4434 31.9117 63.1216 33.6721C63.5312 34.0621 63.9008 34.4919 64.2251 34.9552C64.9128 36.074 64.6972 37.0081 63.5271 37.5932C62.7482 38.0328 61.9147 38.3676 61.0482 38.5889C60.4425 38.7274 60.4015 39.0046 60.653 39.487C60.9814 40.1132 61.2791 40.7496 61.5973 41.3809C62.0182 42.2174 61.8899 42.8025 61.1149 43.3311C60.7729 43.5335 60.4717 43.7981 60.227 44.1112C59.9858 44.4551 60.0217 44.6707 60.4425 44.8657C62.0233 45.6099 62.1413 46.7647 60.7813 47.8835C60.3333 48.2346 60.017 48.7267 59.8838 49.2801C59.7505 49.8334 59.8082 50.4156 60.0474 50.9321C60.2373 51.4094 60.5041 51.8559 60.7402 52.3178C61.9514 54.689 61.0995 56.9112 58.5795 57.7273C56.3342 58.4887 53.9154 58.5779 51.6201 57.9839C50.1266 57.5938 49.5672 57.9839 49.6236 59.5236C49.6801 61.0633 49.8494 64.6149 50.0547 68.1305" stroke="#004E56" stroke-width="1.5" stroke-linecap="round" stroke-linejoin="round"/>
<path d="M10.2844 11.9422C12.5015 8.791 15.8888 6.35315 19.7073 5.78347C23.5257 5.21378 27.6983 6.80993 29.8077 10.0176C31.9171 13.2253 31.4911 18.0651 28.5246 20.503C26.1022 22.5148 22.6532 22.7304 19.9639 24.3625C15.4269 27.1185 14.5852 34.2268 7.8619 31.9686C1.36439 29.7822 0.414908 18.8606 2.13937 13.4358C3.25308 9.94064 5.81411 7.01522 8.91403 5.05468C15.7759 0.728133 24.9679 0.517708 32.5535 2.9145C41.5556 5.76294 46.1695 14.4571 45.0815 21.9041C44.9048 22.8001 44.9385 23.7248 45.1798 24.6056C45.4212 25.4864 45.8636 26.2992 46.4723 26.9799C48.1301 28.7762 49.8135 30.5726 51.4917 32.3329C51.9012 32.7211 52.2709 33.1492 52.5952 33.6109C53.2829 34.7349 53.0674 35.6638 51.8972 36.254C51.1173 36.6915 50.2841 37.0262 49.4183 37.2497C48.8127 37.3831 48.7716 37.6654 49.0231 38.1479C49.3516 38.7689 49.6492 39.4104 49.9674 40.0417C50.3883 40.8783 50.26 41.4582 49.485 41.9868C49.1366 42.1949 48.8288 42.4644 48.5766 42.7823C48.3354 43.1262 48.3713 43.3469 48.7921 43.5419C50.3729 44.281 50.4909 45.4409 49.1309 46.5546C48.6824 46.9065 48.366 47.3996 48.2328 47.9538C48.0996 48.5081 48.1574 49.0911 48.3969 49.6083C48.592 50.0856 48.8589 50.5321 49.0898 50.9941C50.301 53.3652 49.4491 55.6131 46.9291 56.4035C44.6838 57.1649 42.265 57.2541 39.9697 56.6601C38.4762 56.2701 37.9168 56.6601 37.9732 58.1998C38.0297 59.7395 38.199 68.757 38.4043 72.2726" stroke="#004E56" stroke-width="1.5" stroke-linecap="round" stroke-linejoin="round"/>
</g>
<defs>
<clipPath id="clip0_0_238">
<rect width="65" height="82" fill="white" transform="matrix(-1 0 0 1 65 0)"/>
</clipPath>
</defs>
</svg>
