<svg width="27" height="25" viewBox="0 0 27 25" fill="none" xmlns="http://www.w3.org/2000/svg">
<g id="Group 26">
<path id="Rectangle 1" d="M0.160156 0.532227H7.21684C9.73861 0.532227 11.7829 2.57653 11.7829 5.09831V10.6191H4.5602C2.13012 10.6191 0.160156 8.64916 0.160156 6.21908V0.532227Z" fill="#EEFDFF"/>
<path id="Rectangle 7" d="M11.8169 12.2539L11.8946 19.439C11.9218 21.9607 9.89975 24.0269 7.37812 24.0542L0.127032 24.1326L0.0475568 16.7815C0.021286 14.3515 1.96984 12.3604 4.39978 12.3341L11.8169 12.2539Z" fill="#EEFDFF"/>
<path id="Rectangle 6" d="M26.0625 0L26.1282 6.07632C26.1555 8.59796 24.1334 10.6642 21.6117 10.6915L14.6454 10.7668L14.5779 4.52447C14.5517 2.09453 16.5002 0.103381 18.9301 0.0771101L26.0625 0Z" fill="#EEFDFF"/>
</g>
</svg>
