<svg width="38" height="36" viewBox="0 0 38 36" fill="none" xmlns="http://www.w3.org/2000/svg">
<g id="Group 27">
<path id="Rectangle 1" d="M0.23291 0.772461H10.4765C14.1371 0.772461 17.1047 3.74 17.1047 7.40065V15.4147H6.62007C3.09254 15.4147 0.23291 12.5551 0.23291 9.02757V0.772461Z" fill="#6DA4AA"/>
<path id="Rectangle 7" d="M17.1538 17.7883L17.2666 28.2183C17.3061 31.8788 14.3709 34.8782 10.7104 34.9178L0.184654 35.0316L0.0692867 24.3606C0.0311517 20.8332 2.8597 17.9429 6.38703 17.9047L17.1538 17.7883Z" fill="#6DA4AA"/>
<path id="Rectangle 6" d="M37.833 0L37.9284 8.82048C37.9679 12.4809 35.0327 15.4804 31.3722 15.5199L21.2598 15.6293L21.1618 6.56777C21.1237 3.04044 23.9523 0.150069 27.4796 0.111934L37.833 0Z" fill="#6DA4AA"/>
</g>
</svg>
