<svg width="43" height="41" viewBox="0 0 43 41" fill="none" xmlns="http://www.w3.org/2000/svg">
<g id="Group 26">
<path id="Rectangle 1" d="M4.4668 4.53418H13.9458C17.3333 4.53418 20.0793 7.28024 20.0793 10.6677V18.0836H10.3773C7.113 18.0836 4.4668 15.4374 4.4668 12.1732V4.53418Z" fill="#6DA4AA"/>
<path id="Rectangle 7" d="M20.1753 20.9766L20.3057 33.041C20.3515 37.2751 16.9562 40.7445 12.7222 40.7903L0.546985 40.9219L0.413539 28.5787C0.369428 24.4986 3.64122 21.1553 7.7213 21.1112L20.1753 20.9766Z" fill="#6DA4AA"/>
<path id="Rectangle 6" d="M42.0283 0.400391L42.1386 10.6031C42.1844 14.8371 38.7891 18.3066 34.5551 18.3524L22.858 18.4788L22.7447 7.99737C22.7006 3.91729 25.9724 0.573976 30.0525 0.529865L42.0283 0.400391Z" fill="#6DA4AA"/>
<path id="Rectangle 2" d="M23.1396 20.9062H33.8036C37.6144 20.9062 40.7037 23.9956 40.7037 27.8064V36.1494H29.7889C26.1166 36.1494 23.1396 33.1724 23.1396 29.5001V20.9062Z" fill="#6DA4AA"/>
</g>
</svg>
